<?xml version="1.0" encoding="UTF-8"?><svg xmlns="http://www.w3.org/2000/svg" width="450" height="252" version="1.0" shape-rendering="geometricPrecision"><defs><style type="text/css">@font-face {
  font-family: sans-serif;
}</style><filter id="shadowBlur" x="0" y="0" width="200%" height="200%"><feOffset in="SourceGraphic" dx="3.0003002" dy="3.0003002" result="offOut"></feOffset><feGaussianBlur in="offOut" stdDeviation="3"></feGaussianBlur></filter></defs><g stroke-width="1" stroke-linecap="square" stroke-linejoin="round"><rect x="0" y="0" width="450" height="252" style="fill: #ffffff"></rect><path stroke="#969696" fill="#969696" filter="url(#shadowBlur)" d="M305.0 35.0 L425.0 35.0 L425.0 91.0 L305.0 91.0 z"></path><path stroke="#969696" fill="#969696" filter="url(#shadowBlur)" d="M305.0 119.0 L415.0 119.0 L415.0 175.0 L305.0 175.0 z"></path><path stroke="#969696" fill="#969696" filter="url(#shadowBlur)" d="M35.0 91.0 L125.0 91.0 L125.0 147.0 L35.0 147.0 z"></path><path stroke="#000000" stroke-width="1.0" stroke-dasharray="5.0,5.0" stroke-miterlimit="0" stroke-linecap="butt" stroke-linejoin="round" fill="none" d="M75.0 161.0 L75.0 217.0 L355.0 217.0 L355.0 189.0 "></path><path stroke="#000000" stroke-width="1.0" stroke-linecap="round" stroke-linejoin="round" fill="white" d="M305.0 35.0 L425.0 35.0 L425.0 91.0 L305.0 91.0 z"></path><path stroke="#000000" stroke-width="1.0" stroke-linecap="round" stroke-linejoin="round" fill="white" d="M305.0 119.0 L415.0 119.0 L415.0 175.0 L305.0 175.0 z"></path><path stroke="#000000" stroke-width="1.0" stroke-linecap="round" stroke-linejoin="round" fill="white" d="M35.0 91.0 L125.0 91.0 L125.0 147.0 L35.0 147.0 z"></path><path stroke="#000000" stroke-width="1.0" stroke-linecap="round" stroke-linejoin="round" fill="none" d="M295.0 49.0 L265.0 49.0 L265.0 105.0 "></path><path stroke="#000000" stroke-width="1.0" stroke-linecap="round" stroke-linejoin="round" fill="none" d="M265.0 105.0 L265.0 133.0 L295.0 133.0 "></path><path stroke="none" stroke-width="1.0" stroke-linecap="round" stroke-linejoin="round" fill="#000000" d="M290.0 42.0 L300.0 49.0 L290.0 56.0 z"></path><path stroke="none" stroke-width="1.0" stroke-linecap="round" stroke-linejoin="round" fill="#000000" d="M290.0 126.0 L300.0 133.0 L290.0 140.0 z"></path><path stroke="none" stroke-width="1.0" stroke-linecap="round" stroke-linejoin="round" fill="#000000" d="M75.0 154.0 L70.0 168.0 L80.0 168.0 z"></path><path stroke="#000000" stroke-width="1.0" stroke-linecap="round" stroke-linejoin="round" fill="none" d="M360.0 63.0 L369.0 63.0 "></path><path stroke="#000000" stroke-width="1.0" stroke-linecap="round" stroke-linejoin="round" fill="none" d="M265.0 105.0 L135.0 105.0 "></path><text x="322" y="69" font-family="sans-serif" font-size="16" stroke="none" fill="#000000"><![CDATA[docu home]]></text><text x="147" y="97" font-family="sans-serif" font-size="16" stroke="none" fill="#000000"><![CDATA[aggregates]]></text><text x="52" y="124" font-family="sans-serif" font-size="15" stroke="none" fill="#000000"><![CDATA[Docu]]></text><text x="283" y="125" font-family="sans-serif" font-size="16" stroke="none" fill="#ffffff"><![CDATA[n ]]></text><text x="325" y="153" font-family="sans-serif" font-size="16" stroke="none" fill="#000000"><![CDATA[other]]></text><text x="141" y="209" font-family="sans-serif" font-size="16" stroke="none" fill="#000000"><![CDATA[triggers]]></text></g></svg>