<?xml version="1.0" encoding="UTF-8" standalone="no"?>
<!DOCTYPE svg PUBLIC "-//W3C//DTD SVG 1.1//EN"
 "http://www.w3.org/Graphics/SVG/1.1/DTD/svg11.dtd">
<!-- Generated by graphviz version 2.44.0 ()
 -->
<!-- Title: logging Pages: 1 -->
<svg width="591pt" height="350pt"
 viewBox="0.00 0.00 591.00 349.87" xmlns="http://www.w3.org/2000/svg" xmlns:xlink="http://www.w3.org/1999/xlink">
<g id="graph0" class="graph" transform="scale(1 1) rotate(0) translate(4 345.87)">
<title>logging</title>
<polygon fill="white" stroke="transparent" points="-4,4 -4,-345.87 587,-345.87 587,4 -4,4"/>
<g id="clust1" class="cluster">
<title>cluster_aws</title>
<polygon fill="none" stroke="black" points="8,-8 8,-333.87 316,-333.87 316,-8 8,-8"/>
<text text-anchor="middle" x="162" y="-318.67" font-family="Times,serif" font-size="14.00">AWS</text>
</g>
<g id="clust2" class="cluster">
<title>cluster_ecs</title>
<polygon fill="none" stroke="black" points="158,-93 158,-302.87 308,-302.87 308,-93 158,-93"/>
<text text-anchor="middle" x="233" y="-287.67" font-family="Times,serif" font-size="14.00">ECS</text>
</g>
<g id="clust3" class="cluster">
<title>cluster_ecs_instance_1</title>
<polygon fill="none" stroke="black" points="166,-101 166,-271.87 300,-271.87 300,-101 166,-101"/>
<text text-anchor="middle" x="233" y="-256.67" font-family="Times,serif" font-size="14.00">Instance #N</text>
</g>
<g id="clust4" class="cluster">
<title>cluster_gamelift</title>
<polygon fill="none" stroke="black" points="16,-93 16,-302.87 150,-302.87 150,-93 16,-93"/>
<text text-anchor="middle" x="83" y="-287.67" font-family="Times,serif" font-size="14.00">GameLift</text>
</g>
<g id="clust5" class="cluster">
<title>cluster_gamlift_instance_1</title>
<polygon fill="none" stroke="black" points="24,-101 24,-271.87 142,-271.87 142,-101 24,-101"/>
<text text-anchor="middle" x="83" y="-256.67" font-family="Times,serif" font-size="14.00">Instance #N</text>
</g>
<g id="clust6" class="cluster">
<title>cluster_msr</title>
<polygon fill="none" stroke="black" points="324,-101 324,-302.87 575,-302.87 575,-101 324,-101"/>
<text text-anchor="middle" x="449.5" y="-287.67" font-family="Times,serif" font-size="14.00">DC</text>
</g>
<g id="clust7" class="cluster">
<title>cluster_service_instance_1</title>
<polygon fill="none" stroke="black" points="332,-196.87 332,-271.87 436,-271.87 436,-196.87 332,-196.87"/>
<text text-anchor="middle" x="384" y="-256.67" font-family="Times,serif" font-size="14.00">Server #N</text>
</g>
<!-- aws_elasticsearch -->
<g id="node1" class="node">
<title>aws_elasticsearch</title>
<ellipse fill="none" stroke="black" cx="248" cy="-34" rx="58.49" ry="18"/>
<text text-anchor="middle" x="248" y="-30.3" font-family="Times,serif" font-size="14.00">ElasticSearch</text>
</g>
<!-- container -->
<g id="node2" class="node">
<title>container</title>
<ellipse fill="none" stroke="black" cx="233" cy="-222.87" rx="59.29" ry="18"/>
<text text-anchor="middle" x="233" y="-219.17" font-family="Times,serif" font-size="14.00">Container #K</text>
</g>
<!-- fluentd -->
<g id="node3" class="node">
<title>fluentd</title>
<ellipse fill="none" stroke="black" cx="243" cy="-127" rx="40.09" ry="18"/>
<text text-anchor="middle" x="243" y="-123.3" font-family="Times,serif" font-size="14.00">FluentD</text>
</g>
<!-- container&#45;&gt;fluentd -->
<g id="edge1" class="edge">
<title>container&#45;&gt;fluentd</title>
<path fill="none" stroke="black" d="M234.83,-204.65C236.3,-190.89 238.38,-171.34 240.08,-155.43"/>
<polygon fill="black" stroke="black" points="243.6,-155.42 241.18,-145.11 236.64,-154.68 243.6,-155.42"/>
<text text-anchor="middle" x="256.5" y="-166.8" font-family="Times,serif" font-size="14.00">output</text>
</g>
<!-- fluentd&#45;&gt;aws_elasticsearch -->
<g id="edge2" class="edge">
<title>fluentd&#45;&gt;aws_elasticsearch</title>
<path fill="none" stroke="black" d="M243.94,-108.88C244.66,-95.79 245.67,-77.48 246.5,-62.36"/>
<polygon fill="black" stroke="black" points="250.01,-62.22 247.06,-52.04 243.02,-61.83 250.01,-62.22"/>
<text text-anchor="middle" x="266.5" y="-73.8" font-family="Times,serif" font-size="14.00">forward</text>
</g>
<!-- process -->
<g id="node4" class="node">
<title>process</title>
<ellipse fill="none" stroke="black" cx="83" cy="-222.87" rx="51.19" ry="18"/>
<text text-anchor="middle" x="83" y="-219.17" font-family="Times,serif" font-size="14.00">Process #K</text>
</g>
<!-- filebeat -->
<g id="node5" class="node">
<title>filebeat</title>
<ellipse fill="none" stroke="black" cx="91" cy="-127" rx="39.79" ry="18"/>
<text text-anchor="middle" x="91" y="-123.3" font-family="Times,serif" font-size="14.00">Filebeat</text>
</g>
<!-- process&#45;&gt;filebeat -->
<g id="edge5" class="edge">
<title>process&#45;&gt;filebeat</title>
<path fill="none" stroke="black" d="M84.47,-204.65C85.64,-190.89 87.31,-171.34 88.66,-155.43"/>
<polygon fill="black" stroke="black" points="92.18,-155.37 89.54,-145.11 85.21,-154.77 92.18,-155.37"/>
<text text-anchor="middle" x="104.5" y="-166.8" font-family="Times,serif" font-size="14.00">output</text>
</g>
<!-- filebeat&#45;&gt;aws_elasticsearch -->
<g id="edge6" class="edge">
<title>filebeat&#45;&gt;aws_elasticsearch</title>
<path fill="none" stroke="black" d="M114.5,-112.38C140.55,-97.28 182.83,-72.77 212.83,-55.39"/>
<polygon fill="black" stroke="black" points="214.81,-58.28 221.71,-50.24 211.3,-52.22 214.81,-58.28"/>
<text text-anchor="middle" x="204.5" y="-73.8" font-family="Times,serif" font-size="14.00">forward</text>
</g>
<!-- rdvnode -->
<g id="node6" class="node">
<title>rdvnode</title>
<ellipse fill="none" stroke="black" cx="384" cy="-222.87" rx="43.59" ry="18"/>
<text text-anchor="middle" x="384" y="-219.17" font-family="Times,serif" font-size="14.00">Node #K</text>
</g>
<!-- flume -->
<g id="node8" class="node">
<title>flume</title>
<ellipse fill="none" stroke="black" cx="375" cy="-127" rx="33.6" ry="18"/>
<text text-anchor="middle" x="375" y="-123.3" font-family="Times,serif" font-size="14.00">Flume</text>
</g>
<!-- rdvnode&#45;&gt;flume -->
<g id="edge3" class="edge">
<title>rdvnode&#45;&gt;flume</title>
<path fill="none" stroke="black" d="M382.35,-204.65C381.03,-190.89 379.16,-171.34 377.63,-155.43"/>
<polygon fill="black" stroke="black" points="381.08,-154.73 376.64,-145.11 374.11,-155.4 381.08,-154.73"/>
<text text-anchor="middle" x="400" y="-166.8" font-family="Times,serif" font-size="14.00">logging</text>
</g>
<!-- services -->
<g id="node7" class="node">
<title>services</title>
<ellipse fill="none" stroke="black" cx="506" cy="-222.87" rx="60.62" ry="26.74"/>
<text text-anchor="middle" x="506" y="-226.67" font-family="Times,serif" font-size="14.00">UbiServices</text>
<text text-anchor="middle" x="506" y="-211.67" font-family="Times,serif" font-size="14.00">RemoteLogs</text>
</g>
<!-- services&#45;&gt;aws_elasticsearch -->
<g id="edge7" class="edge">
<title>services&#45;&gt;aws_elasticsearch</title>
<path fill="none" stroke="black" d="M494.8,-196.42C480.8,-167.44 454.23,-120.55 418,-93 385.92,-68.6 342.9,-54.06 308.17,-45.63"/>
<polygon fill="black" stroke="black" points="308.67,-42.16 298.14,-43.31 307.1,-48.98 308.67,-42.16"/>
<text text-anchor="middle" x="485.5" y="-123.3" font-family="Times,serif" font-size="14.00">forward</text>
</g>
<!-- flume&#45;&gt;aws_elasticsearch -->
<g id="edge4" class="edge">
<title>flume&#45;&gt;aws_elasticsearch</title>
<path fill="none" stroke="black" d="M355.71,-112.18C335.19,-97.48 302.45,-74.02 278.45,-56.82"/>
<polygon fill="black" stroke="black" points="280.2,-53.77 270.04,-50.79 276.13,-59.46 280.2,-53.77"/>
</g>
</g>
</svg>
