<?xml version="1.0" encoding="UTF-8"?><svg xmlns="http://www.w3.org/2000/svg" width="540" height="280" version="1.0" shape-rendering="geometricPrecision"><defs><style type="text/css">@font-face {
  font-family: sans-serif;
}</style><filter id="shadowBlur" x="0" y="0" width="200%" height="200%"><feOffset in="SourceGraphic" dx="3.0003002" dy="3.0003002" result="offOut"></feOffset><feGaussianBlur in="offOut" stdDeviation="3"></feGaussianBlur></filter></defs><g stroke-width="1" stroke-linecap="square" stroke-linejoin="round"><rect x="0" y="0" width="540" height="280" style="fill: #ffffff"></rect><path stroke="#969696" fill="#969696" filter="url(#shadowBlur)" d="M355.0 140.0 Q355.0 133.0 360.0 133.0 L510.0 133.0 Q515.0 133.0 515.0 140.0 L515.0 196.0 L515.0 196.0 Q515.0 203.0 510.0 203.0 L360.0 203.0 L360.0 203.0 Q355.0 203.0 355.0 196.0 L355.0 140.0 z"></path><path stroke="#969696" fill="#969696" filter="url(#shadowBlur)" d="M35.0 133.0 L125.0 133.0 L125.0 203.0 Q95.0 195.0 80.0 203.0 Q65.0 211.0 35.0 203.0 z"></path><path stroke="#969696" fill="#969696" filter="url(#shadowBlur)" d="M215.0 35.0 L355.0 35.0 L355.0 77.0 L215.0 77.0 z"></path><path stroke="#969696" fill="#969696" filter="url(#shadowBlur)" d="M165.0 163.0 L305.0 163.0 L305.0 203.0 L165.0 203.0 z"></path><path stroke="#969696" fill="#969696" filter="url(#shadowBlur)" d="M165.0 133.0 L305.0 133.0 L305.0 159.0 L165.0 159.0 z"></path><path stroke="#000000" stroke-width="1.0" stroke-dasharray="5.0,5.0" stroke-miterlimit="0" stroke-linecap="butt" stroke-linejoin="round" fill="none" d="M75.0 203.0 L75.0 245.0 L435.0 245.0 L435.0 217.0 "></path><path stroke="#000000" stroke-width="1.0" stroke-linecap="round" stroke-linejoin="round" fill="white" d="M355.0 140.0 Q355.0 133.0 360.0 133.0 L510.0 133.0 Q515.0 133.0 515.0 140.0 L515.0 196.0 L515.0 196.0 Q515.0 203.0 510.0 203.0 L360.0 203.0 L360.0 203.0 Q355.0 203.0 355.0 196.0 L355.0 140.0 z"></path><path stroke="#000000" stroke-width="1.0" stroke-linecap="round" stroke-linejoin="round" fill="white" d="M35.0 133.0 L125.0 133.0 L125.0 203.0 Q95.0 195.0 80.0 203.0 Q65.0 211.0 35.0 203.0 z"></path><path stroke="#000000" stroke-width="1.0" stroke-linecap="round" stroke-linejoin="round" fill="white" d="M215.0 35.0 L355.0 35.0 L355.0 77.0 L215.0 77.0 z"></path><path stroke="#000000" stroke-width="1.0" stroke-linecap="round" stroke-linejoin="round" fill="white" d="M165.0 163.0 L305.0 163.0 L305.0 203.0 L165.0 203.0 z"></path><path stroke="#000000" stroke-width="1.0" stroke-linecap="round" stroke-linejoin="round" fill="white" d="M165.0 133.0 L305.0 133.0 L305.0 159.0 L165.0 159.0 z"></path><path stroke="#000000" stroke-width="1.0" stroke-linecap="round" stroke-linejoin="round" fill="none" d="M365.0 49.0 L435.0 49.0 L435.0 119.0 "></path><path stroke="none" stroke-width="1.0" stroke-linecap="round" stroke-linejoin="round" fill="#000000" d="M255.0 84.0 L250.0 98.0 L260.0 98.0 z"></path><path stroke="none" stroke-width="1.0" stroke-linecap="round" stroke-linejoin="round" fill="#000000" d="M430.0 112.0 L435.0 126.0 L440.0 112.0 z"></path><path stroke="none" stroke-width="1.0" stroke-linecap="round" stroke-linejoin="round" fill="#000000" d="M330.0 140.0 L340.0 147.0 L330.0 154.0 z"></path><path stroke="none" stroke-width="1.0" stroke-linecap="round" stroke-linejoin="round" fill="#000000" d="M435.0 210.0 L430.0 224.0 L440.0 224.0 z"></path><path stroke="#000000" stroke-width="1.0" stroke-linecap="round" stroke-linejoin="round" fill="none" d="M255.0 91.0 L255.0 133.0 "></path><path stroke="#000000" stroke-width="1.0" stroke-linecap="round" stroke-linejoin="round" fill="none" d="M145.0 147.0 L165.0 147.0 "></path><path stroke="#000000" stroke-width="1.0" stroke-linecap="round" stroke-linejoin="round" fill="none" d="M305.0 147.0 L335.0 147.0 "></path><text x="242" y="55" font-family="sans-serif" font-size="16" stroke="none" fill="#000000"><![CDATA[Asciidoctor]]></text><text x="254" y="69" font-family="sans-serif" font-size="16" stroke="none" fill="#000000"><![CDATA[diagram]]></text><text x="453" y="83" font-family="sans-serif" font-size="16" stroke="none" fill="#000000"><![CDATA[PNG out]]></text><text x="283" y="111" font-family="sans-serif" font-size="16" stroke="none" fill="#000000"><![CDATA[ditaa in]]></text><text x="192" y="153" font-family="sans-serif" font-size="16" stroke="none" fill="#000000"><![CDATA[Asciidoctor]]></text><text x="64" y="167" font-family="sans-serif" font-size="16" stroke="none" fill="#000000"><![CDATA[Text]]></text><text x="41" y="181" font-family="sans-serif" font-size="16" stroke="none" fill="#000000"><![CDATA[Document]]></text><text x="402" y="167" font-family="sans-serif" font-size="16" stroke="none" fill="#000000"><![CDATA[Beautiful]]></text><text x="404" y="181" font-family="sans-serif" font-size="16" stroke="none" fill="#000000"><![CDATA[Output]]></text><text x="207" y="181" font-family="sans-serif" font-size="16" stroke="none" fill="#000000"><![CDATA[!magic!]]></text><text x="193" y="237" font-family="sans-serif" font-size="16" stroke="none" fill="#000000"><![CDATA[Lots of work]]></text></g></svg>